<svg width="615" height="224" viewBox="0 0 615 224" fill="none" xmlns="http://www.w3.org/2000/svg">
<g clip-path="url(#clip0_14_398)">
<path d="M8 139.91C17.9673 118.819 28.6466 103.626 40.0378 94.3318C51.429 85.0374 64.0661 80.3902 77.9492 80.3902C93.2561 80.3902 100.91 87.361 100.91 101.303C108.029 93.7956 114.971 88.4334 121.734 85.2162C128.854 81.9989 135.973 80.3902 143.093 80.3902C151.28 80.3902 157.688 82.7138 162.315 87.361C167.299 92.0082 169.791 98.2641 169.791 106.129C169.791 112.206 167.833 118.104 163.917 123.824C160.358 129.543 155.018 132.403 147.898 132.403C142.915 132.403 138.821 131.152 135.617 128.65C132.413 126.147 130.812 122.573 130.812 117.925C130.812 114.708 131.524 111.848 132.947 109.346C134.015 107.201 134.549 105.592 134.549 104.52C134.549 100.945 132.413 99.1578 128.142 99.1578C124.582 99.1578 120.31 101.124 115.327 105.056C110.699 108.988 106.961 115.066 104.113 123.288L67.2699 224.096H23.4849L60.8624 119.534C61.5743 117.389 62.1083 115.244 62.4643 113.099C62.8202 110.955 62.9982 109.167 62.9982 107.737C62.9982 103.448 61.3963 101.303 58.1925 101.303C53.5649 101.303 48.0472 104.52 41.6397 110.955C35.5881 117.389 29.5365 127.041 23.4849 139.91H8Z" fill="white"/>
<path d="M213.821 2.92001C214.246 2.70667 216.157 2.6 219.556 2.6C223.168 3.02667 225.505 3.34667 226.567 3.56001C234.852 6.12001 240.8 11.0267 244.412 18.28C246.324 22.3333 247.28 26.28 247.28 30.12C247.28 34.1733 246.324 38.12 244.412 41.96C240.8 49.4267 234.852 54.44 226.567 57C224.655 57.4267 222 57.64 218.601 57.64C214.989 57.64 212.334 57.4267 210.634 57C202.137 54.44 196.082 49.4267 192.471 41.96C190.771 38.5467 189.922 34.6 189.922 30.12C189.922 27.1333 190.028 25 190.24 23.72C191.302 19.88 193.214 16.2533 195.976 12.84C200.437 7.50667 206.385 4.20001 213.821 2.92001ZM211.59 82.28C232.834 81.4267 243.031 81 242.181 81H244.093V201.96H263.85V225H260.982L240.588 224.36C228.904 224.147 216.795 224.147 204.261 224.36L182.592 225H179.725V201.96H201.712V158.12C201.712 128.467 201.606 113.213 201.393 112.36C200.543 109.8 199.163 108.307 197.251 107.88C194.276 107.027 190.028 106.6 184.504 106.6H180.68V83.56H181.636L211.59 82.28Z" fill="white"/>
<path d="M304.745 82.28C325.563 81.4267 335.654 81 335.017 81H336.929V104.68L339.478 102.12C344.789 96.5733 351.162 92.0933 358.597 88.68C364.758 85.2667 371.981 82.92 380.266 81.64C385.577 80.7867 392.906 80.68 402.253 81.32C403.103 81.5333 403.846 81.64 404.484 81.64C420.841 83.56 431.888 90.4933 437.624 102.44C438.898 105 440.067 108.947 441.129 114.28C441.554 116.627 441.873 131.88 442.085 160.04V201.96H464.072V225H461.204L438.899 224.36C426.152 224.147 413.406 224.147 400.66 224.36C385.789 224.787 378.46 225 378.673 225H375.805V201.96H397.792V161.96C397.792 134.227 397.686 119.72 397.473 118.44C396.411 107.56 391.844 101.587 383.771 100.52C382.284 100.52 380.585 100.52 378.673 100.52C368.476 101.16 359.766 105.107 352.543 112.36C347.444 117.48 344.045 123.133 342.346 129.32C341.071 132.947 340.434 142.12 340.434 156.84C340.434 159.4 340.434 163.88 340.434 170.28V201.96H362.421V225H359.553L337.247 224.36C324.501 224.147 311.755 224.147 299.009 224.36C284.138 224.787 276.809 225 277.022 225H274.154V201.96H296.141V157.8C296.141 128.36 295.928 113.107 295.504 112.04C294.866 109.907 293.485 108.52 291.361 107.88C288.387 107.027 284.032 106.6 278.296 106.6H274.154V83.56H275.11C274.047 83.56 283.926 83.1333 304.745 82.28Z" fill="white"/>
<path d="M568.487 1.32C569.124 1.10667 571.992 1 577.09 1C581.977 1.21333 584.951 1.53333 586.013 1.96001C589.837 3.02667 593.129 4.62667 595.891 6.76C598.015 8.46667 600.352 11.0267 602.901 14.44C604.601 16.7867 606.088 20.0933 607.363 24.36C607.788 26.28 608 29.0533 608 32.68C608 36.0933 607.788 38.6533 607.363 40.36C604.389 49.7467 597.909 54.9733 587.925 56.04C586.863 56.2533 585.8 56.36 584.738 56.36C580.702 56.36 576.984 55.5067 573.585 53.8C567.849 51.0267 564.026 46.5467 562.114 40.36C561.689 38.8667 561.476 36.4133 561.476 33C561.264 28.52 561.901 24.8933 563.388 22.12L564.026 20.84H563.07C561.795 20.84 559.246 21.3733 555.422 22.44C549.474 24.36 544.8 27.56 541.401 32.04C539.277 34.3867 537.683 37.2667 536.621 40.68C535.347 44.7333 534.709 53.3733 534.709 66.6V82.92H569.443V105.96H536.621V201.96H564.026V225H560.839L536.621 224.36C522.6 224.147 509.323 224.147 496.789 224.36L475.121 225H472.253V201.96H494.24V105.96H474.483V82.92H494.24V65L494.559 46.76L495.196 43.88C497.108 37.48 499.763 32.04 503.162 27.56C513.784 13.9067 531.841 5.48 557.334 2.28C559.033 2.06667 560.839 1.85334 562.751 1.64001C564.238 1.42667 566.15 1.32 568.487 1.32Z" fill="white"/>
</g>
<defs>
<clipPath id="clip0_14_398">
<rect width="615" height="224" fill="white"/>
</clipPath>
</defs>
</svg>
